<?xml version="1.0"?>
<svg xmlns="http://www.w3.org/2000/svg" height="512px" viewBox="0 0 512 512" width="512px"><g><g id="Laptop"><path d="m496 352h-24v-216a40.045 40.045 0 0 0 -40-40h-352a40.045 40.045 0 0 0 -40 40v216h-24a8 8 0 0 0 -8 8v16a40.045 40.045 0 0 0 40 40h416a40.045 40.045 0 0 0 40-40v-16a8 8 0 0 0 -8-8zm-440-216a24.027 24.027 0 0 1 24-24h352a24.027 24.027 0 0 1 24 24v216h-400zm244.9 232-2.666 8h-84.468l-2.666-8zm187.1 8a24.027 24.027 0 0 1 -24 24h-416a24.027 24.027 0 0 1 -24-24v-8h170.234l6.176 18.53a8 8 0 0 0 7.59 5.47h96a8 8 0 0 0 7.59-5.47l6.176-18.53h170.234z" data-original="#000000" class="active-path" data-old_color="#000000" fill="#8DCB78"/><path d="m448 336v-208a8 8 0 0 0 -8-8h-368a8 8 0 0 0 -8 8v208a8 8 0 0 0 8 8h368a8 8 0 0 0 8-8zm-16-8h-352v-192h352z" data-original="#000000" class="active-path" data-old_color="#000000" fill="#8DCB78"/><path d="m104 376h-40a8 8 0 0 0 0 16h40a8 8 0 0 0 0-16z" data-original="#000000" class="active-path" data-old_color="#000000" fill="#8DCB78"/><path d="m136 376h-8a8 8 0 0 0 0 16h8a8 8 0 0 0 0-16z" data-original="#000000" class="active-path" data-old_color="#000000" fill="#8DCB78"/><path d="m256 320a88 88 0 1 0 -88-88 88.1 88.1 0 0 0 88 88zm0-160a72 72 0 1 1 -72 72 72.081 72.081 0 0 1 72-72z" data-original="#000000" class="active-path" data-old_color="#000000" fill="#8DCB78"/><path d="m232 256a8 8 0 0 0 0 16h16a8 8 0 0 0 16 0h16a8 8 0 0 0 8-8v-32a8 8 0 0 0 -8-8h-40v-16h40a8 8 0 0 0 0-16h-16a8 8 0 0 0 -16 0h-16a8 8 0 0 0 -8 8v32a8 8 0 0 0 8 8h40v16z" data-original="#000000" class="active-path" data-old_color="#000000" fill="#8DCB78"/></g></g> </svg>
